<?xml version="1.0" encoding="UTF-8"?>
<!DOCTYPE svg PUBLIC "-//W3C//DTD SVG 1.1//EN" "http://www.w3.org/Graphics/SVG/1.1/DTD/svg11.dtd">

<svg xmlns="http://www.w3.org/2000/svg" xml:space="preserve" width="800px" version="1.1" style="shape-rendering:geometricPrecision; text-rendering:geometricPrecision; image-rendering:optimizeQuality; fill-rule:evenodd; clip-rule:evenodd"
viewBox="0 0 17000 2800"
 xmlns:xlink="http://www.w3.org/1999/xlink">
 <defs>
  <style type="text/css">
   <![CDATA[
    .str0 {stroke:white;stroke-width:120;stroke-linejoin:round;stroke-dasharray:12470}
	.str3 {stroke:#85C2DC;stroke-width:120;stroke-linejoin:round;stroke-dasharray:12470}
	.str1 {stroke:black;stroke-width:0;stroke-linejoin:round;stroke-dasharray:12470}
    .fil2 {fill:none}
    .fil0 {fill:#95D5F3}
    .fil1 {fill:white}
	
	
	.fil5 {fill:#85C2DC}
    .fil3 {fill:#85C2DC;fill-rule:nonzero}
    .fil4 {fill:white;fill-rule:nonzero}
   ]]>
  </style>
 </defs>

  <rect id="bck_rct" class="fil0" width="17000" height="2800"/>

 <g > 

 
 <g transform='translate(2900,0)' visibility='hidden'>
    <path id="prw_txt3_shd" class="fil5" d="M10189 1635l5 156c0,0 -170,41 -312,41 -224,0 -320,-110 -320,-380 0,-265 110,-398 330,-398 219,0 324,110 324,334l-13 142 -439 0c0,87 41,119 151,119 118,0 274,-14 274,-14l0 0zm5188 0l5 156c0,0 -170,41 -311,41 -225,0 -321,-110 -321,-380 0,-265 110,-398 330,-398 219,0 325,110 325,334l-14 142 -439 0c0,87 41,119 151,119 123,0 274,-14 274,-14l0 0zm-1267 0l4 156c0,0 -169,41 -311,41 -224,0 -320,-110 -320,-380 0,-265 110,-398 329,-398 220,0 325,110 325,334l-13 142 -440 0c0,87 42,119 151,119 119,0 275,-14 275,-14l0 0zm-1784 -192c0,229 -83,389 -344,389 -260,0 -343,-160 -343,-389 0,-229 83,-389 343,-389 261,0 344,160 344,389l0 0zm-3990 211c101,0 105,-60 105,-193l0 -388 202 0 0 388c0,257 -46,371 -261,371l-124 0c-219,0 -260,-119 -260,-371l0 -388 201 0 0 388c0,133 4,193 105,193l32 0zm2434 -385c-87,0 -206,28 -206,28l0 517 -201 0 0 -741 201 0c0,0 133,-19 206,-19l0 215zm3921 0c-87,0 -206,28 -206,28l0 517 -201 0 0 -741 201 0c0,0 133,-19 206,-19l0 215zm1482 545l-201 0c0,0 -101,18 -179,18 -224,0 -288,-137 -288,-398 0,-270 105,-380 307,-380 55,0 160,19 160,19l0 -257 201 23 0 975zm-197 -188l0 -380c0,0 -82,-13 -146,-13 -73,0 -119,55 -119,201 0,151 28,210 124,210 55,0 141,-18 141,-18zm-768 -251c0,-106 -32,-147 -128,-147 -96,0 -128,46 -128,147l256 0zm-1267 0c0,-106 -32,-147 -129,-147 -96,0 -128,46 -128,147l257 0zm-1364 -302l92 562 9 0 114 -549 211 0 109 549 14 0 87 -562 197 0 -137 741 -293 0 -87 -453 -83 453 -292 0 -138 -741 197 0zm-453 370c0,-137 -32,-210 -142,-210 -109,0 -141,73 -141,210 0,137 32,211 141,211 110,0 142,-74 142,-211zm-1249 -370l202 0c0,0 96,-19 169,-19 197,0 293,96 293,385 0,315 -110,398 -339,398 -55,0 -123,-14 -123,-14l0 261 -202 -23 0 -988zm202 192l0 379c0,0 68,10 109,10 119,0 151,-60 151,-215 0,-151 -50,-202 -128,-202 -55,0 -132,28 -132,28zm-1062 110c0,-106 -32,-147 -128,-147 -96,0 -128,46 -128,147l256 0zm-1221 -302l201 0c0,0 96,-19 169,-19 197,0 293,96 293,385 0,315 -110,398 -339,398 -54,0 -123,-14 -123,-14l0 261 -201 -23 0 -988zm201 192l0 379c0,0 69,10 110,10 119,0 151,-60 151,-215 0,-151 -51,-202 -128,-202 -55,0 -133,28 -133,28zm-1185 -9c0,0 -183,-23 -270,-23 -87,0 -105,18 -105,59 0,32 27,41 142,60 196,32 260,87 260,238 0,173 -114,242 -302,242 -109,0 -292,-37 -292,-37l4 -169c0,0 192,28 266,28 96,0 119,-19 119,-55 0,-32 -19,-46 -119,-64 -193,-32 -279,-78 -279,-238 0,-174 132,-243 288,-243 105,0 288,37 288,37l0 165z"/>
    <path id="prw_txt3" class="fil1" d="M10189 1597l5 156c0,0 -170,41 -312,41 -224,0 -320,-110 -320,-380 0,-265 110,-398 330,-398 219,0 324,110 324,334l-13 142 -439 0c0,87 41,119 151,119 118,0 274,-14 274,-14l0 0zm5188 0l5 156c0,0 -170,41 -311,41 -225,0 -321,-110 -321,-380 0,-265 110,-398 330,-398 219,0 325,110 325,334l-14 142 -439 0c0,87 41,119 151,119 123,0 274,-14 274,-14l0 0zm-1267 0l4 156c0,0 -169,41 -311,41 -224,0 -320,-110 -320,-380 0,-265 110,-398 329,-398 220,0 325,110 325,334l-13 142 -440 0c0,87 42,119 151,119 119,0 275,-14 275,-14l0 0zm-1784 -192c0,229 -83,389 -344,389 -260,0 -343,-160 -343,-389 0,-229 83,-389 343,-389 261,0 344,160 344,389l0 0zm-3990 210c101,0 105,-59 105,-192l0 -389 202 0 0 389c0,256 -46,371 -261,371l-124 0c-219,0 -260,-119 -260,-371l0 -389 201 0 0 389c0,133 4,192 105,192l32 0zm2434 -384c-87,0 -206,28 -206,28l0 517 -201 0 0 -742 201 0c0,0 133,-18 206,-18l0 215zm3921 0c-87,0 -206,28 -206,28l0 517 -201 0 0 -742 201 0c0,0 133,-18 206,-18l0 215zm1482 545l-201 0c0,0 -101,18 -179,18 -224,0 -288,-137 -288,-398 0,-270 105,-380 307,-380 55,0 160,18 160,18l0 -256 201 23 0 975zm-197 -188l0 -380c0,0 -82,-13 -146,-13 -73,0 -119,54 -119,201 0,151 28,210 124,210 55,0 141,-18 141,-18zm-768 -252c0,-105 -32,-146 -128,-146 -96,0 -128,46 -128,146l256 0zm-1267 0c0,-105 -32,-146 -129,-146 -96,0 -128,46 -128,146l257 0zm-1364 -302l92 563 9 0 114 -549 211 0 109 549 14 0 87 -563 197 0 -137 742 -293 0 -87 -453 -83 453 -292 0 -138 -742 197 0zm-453 371c0,-137 -32,-210 -142,-210 -109,0 -141,73 -141,210 0,137 32,210 141,210 110,0 142,-73 142,-210zm-1249 -371l202 0c0,0 96,-18 169,-18 197,0 293,96 293,384 0,316 -110,398 -339,398 -55,0 -123,-13 -123,-13l0 260 -202 -22 0 -989zm202 193l0 379c0,0 68,9 109,9 119,0 151,-59 151,-215 0,-151 -50,-201 -128,-201 -55,0 -132,28 -132,28zm-1062 109c0,-105 -32,-146 -128,-146 -96,0 -128,46 -128,146l256 0zm-1221 -302l201 0c0,0 96,-18 169,-18 197,0 293,96 293,384 0,316 -110,398 -339,398 -54,0 -123,-13 -123,-13l0 260 -201 -22 0 -989zm201 193l0 379c0,0 69,9 110,9 119,0 151,-59 151,-215 0,-151 -51,-201 -128,-201 -55,0 -133,28 -133,28zm-1185 -10c0,0 -183,-22 -270,-22 -87,0 -105,18 -105,59 0,32 27,41 142,59 196,33 260,87 260,238 0,174 -114,243 -302,243 -109,0 -292,-37 -292,-37l4 -169c0,0 192,27 266,27 96,0 119,-18 119,-54 0,-32 -19,-46 -119,-65 -193,-32 -279,-77 -279,-237 0,-174 132,-243 288,-243 105,0 288,37 288,37l0 164z"/>
	<animate attributeType="CSS" attributeName="opacity" values="0;1" dur="0.5s" begin="draw_line.end"/>
		<set attributeName="visibility" attributeType="XML" begin="draw_line.end" from="hidden" to="visible"/>
	
	</g>

	 <g id="pwr_draw_line">
	<g transform='translate(0,40)'>
	 <def>
		 <clipPath id="clp_spwr2" >
			<path class="fil1"  d="M8500 244c-637,0 -1156,518 -1156,1156 0,637 519,1156 1156,1156 638,0 1156,-519 1156,-1156 0,-638 -518,-1156 -1156,-1156l0 0zm0 112c575,0 1044,469 1044,1044 0,86 -11,169 -31,248 -2,0 -4,0 -5,0 -67,19 -139,29 -216,30 -15,-25 -34,-105 -45,-153 -30,-130 -55,-242 -145,-242 -85,0 -118,90 -144,162 -6,18 -16,43 -24,61 -18,-68 -34,-204 -45,-301 -36,-305 -55,-428 -147,-428 -92,0 -109,126 -147,528 -9,98 -22,229 -36,323 -11,-66 -21,-148 -29,-212 -36,-286 -55,-414 -147,-414 -94,0 -114,132 -145,354 -10,67 -24,160 -38,216 -11,-34 -22,-81 -28,-114 -30,-131 -55,-244 -145,-244 -93,0 -116,123 -146,278 -11,60 -29,155 -47,186 -87,-3 -270,-26 -357,-95 -2,-2 -4,-2 -5,-2 -11,-59 -17,-119 -17,-181 1,-575 470,-1044 1045,-1044l0 0zm0 2088c-459,0 -850,-300 -989,-713 125,50 277,63 337,63 93,0 116,-124 146,-278 9,-46 22,-113 34,-155 13,36 24,87 31,123 30,132 55,244 146,244 93,0 114,-133 145,-355 8,-56 19,-129 31,-186 14,71 25,168 35,243 36,287 54,414 147,414 92,0 109,-127 146,-528 10,-99 22,-227 36,-321 11,69 22,157 30,224 36,304 55,428 147,428 84,0 117,-91 144,-163 7,-23 20,-59 29,-76 14,33 30,100 39,142 30,130 55,242 146,242 65,0 131,-6 192,-19 -150,391 -528,671 -972,671z"/>
		</clipPath>
	 </def>
	  <path class="fil2 str3" style='clip-path: url(#clp_spwr2);' d="M7424 1635c-130,-594 247,-1179 840,-1309 594,-131 1182,252 1313,846 130,593 -248,1172 -841,1302 -594,131 -1180,-241 -1310,-834 103,56 390,124 438,94 65,-42 70,-447 166,-451 96,-4 75,392 175,376 100,-16 78,-595 183,-589 104,7 97,703 177,701 80,-2 77,-926 178,-929 100,-3 106,723 179,742 73,20 109,-237 180,-240 70,-3 88,350 171,382 50,19 248,-31 290,-42">
				<animate attributeType="CSS" attributeName="stroke-dashoffset" from="12470" to="0" dur="1.5s" begin="0s" />
	  </path>
	  </g>
	  
	  <def>
		 <clipPath id="clp_spwr">
			<path class="fil1" d="M8500 244c-637,0 -1156,518 -1156,1156 0,637 519,1156 1156,1156 638,0 1156,-519 1156,-1156 0,-638 -518,-1156 -1156,-1156l0 0zm0 112c575,0 1044,469 1044,1044 0,86 -11,169 -31,248 -2,0 -4,0 -5,0 -67,19 -139,29 -216,30 -15,-25 -34,-105 -45,-153 -30,-130 -55,-242 -145,-242 -85,0 -118,90 -144,162 -6,18 -16,43 -24,61 -18,-68 -34,-204 -45,-301 -36,-305 -55,-428 -147,-428 -92,0 -109,126 -147,528 -9,98 -22,229 -36,323 -11,-66 -21,-148 -29,-212 -36,-286 -55,-414 -147,-414 -94,0 -114,132 -145,354 -10,67 -24,160 -38,216 -11,-34 -22,-81 -28,-114 -30,-131 -55,-244 -145,-244 -93,0 -116,123 -146,278 -11,60 -29,155 -47,186 -87,-3 -270,-26 -357,-95 -2,-2 -4,-2 -5,-2 -11,-59 -17,-119 -17,-181 1,-575 470,-1044 1045,-1044l0 0zm0 2088c-459,0 -850,-300 -989,-713 125,50 277,63 337,63 93,0 116,-124 146,-278 9,-46 22,-113 34,-155 13,36 24,87 31,123 30,132 55,244 146,244 93,0 114,-133 145,-355 8,-56 19,-129 31,-186 14,71 25,168 35,243 36,287 54,414 147,414 92,0 109,-127 146,-528 10,-99 22,-227 36,-321 11,69 22,157 30,224 36,304 55,428 147,428 84,0 117,-91 144,-163 7,-23 20,-59 29,-76 14,33 30,100 39,142 30,130 55,242 146,242 65,0 131,-6 192,-19 -150,391 -528,671 -972,671z"/>
		</clipPath>
	 </def>
	<path id='pwr_mpth' class="fil2 str1" d="M7424 1635c-130,-594 247,-1179 840,-1309 594,-131 1182,252 1313,846 130,593 -248,1172 -841,1302 -594,131 -1180,-241 -1310,-834 103,56 390,124 438,94 65,-42 70,-447 166,-451 96,-4 75,392 175,376 100,-16 78,-595 183,-589 104,7 97,703 177,701 80,-2 77,-926 178,-929 100,-3 106,723 179,742 73,20 109,-237 180,-240 70,-3 88,350 171,382 50,19 248,-31 290,-42" />

	  <path class="fil2 str0" style='clip-path: url(#clp_spwr);' d="M7424 1635c-130,-594 247,-1179 840,-1309 594,-131 1182,252 1313,846 130,593 -248,1172 -841,1302 -594,131 -1180,-241 -1310,-834 103,56 390,124 438,94 65,-42 70,-447 166,-451 96,-4 75,392 175,376 100,-16 78,-595 183,-589 104,7 97,703 177,701 80,-2 77,-926 178,-929 100,-3 106,723 179,742 73,20 109,-237 180,-240 70,-3 88,350 171,382 50,19 248,-31 290,-42">
				<animate id='draw_line' attributeType="CSS" attributeName="stroke-dashoffset" from="12470" to="0" dur="1.5s" begin="0s" />
	  </path>
	  
	  <circle class="fil1" cx="0" cy="0" r="145">
				<animateMotion begin="draw_line.begin" dur="1.5s" repeatCount="1" fill="freeze" >
					 <mpath xlink:href="#pwr_mpth" />
				</animateMotion>
				<animateTransform id='spwr_rnd_hide' attributeName="transform" attributeType="XML"  fill="freeze" type="translate" dur="0.5s" begin="draw_line.end" values="0 0;10 10" />
				<animateTransform attributeName="transform" attributeType="XML"  type="scale" dur="0.5s" fill="freeze"  additive='sum' values="1 1; 0 0" begin="spwr_rnd_hide.begin" />
	</circle>
	 </g>
 
 		<animateTransform attributeName="transform" attributeType="XML"  fill="freeze" type="translate" dur="0.5s" begin="draw_line.end" values="0 0;-2900 0" />

 
 
 </g>
 
 
 
 
<g visibility='hidden'> 
	<path id="prw_txt1_shd" class="fil3" d="M659 1288l0 34c14,-13 29,-24 45,-31 17,-7 34,-10 53,-10 40,0 75,15 103,45 28,31 42,70 42,118 0,46 -14,84 -44,115 -29,31 -63,47 -103,47 -18,0 -35,-4 -50,-10 -16,-6 -31,-17 -46,-31l0 146 -78 0 0 -423 78 0zm81 64c-24,0 -44,8 -60,25 -16,17 -25,38 -25,65 0,28 9,50 25,67 16,17 36,25 60,25 24,0 44,-8 60,-25 17,-18 25,-40 25,-66 0,-27 -8,-49 -24,-66 -16,-17 -36,-25 -61,-25zm372 -71c29,0 57,7 83,22 26,14 46,34 60,59 15,25 22,52 22,81 0,29 -7,56 -22,82 -15,25 -34,45 -59,59 -26,14 -53,22 -83,22 -45,0 -83,-16 -114,-48 -32,-31 -48,-69 -48,-115 0,-48 18,-88 54,-120 31,-28 67,-42 107,-42zm1 73c-24,0 -44,8 -60,25 -16,17 -24,38 -24,64 0,27 8,49 24,65 16,17 36,25 60,25 24,0 45,-8 61,-25 16,-17 24,-38 24,-65 0,-26 -8,-48 -24,-65 -16,-16 -36,-24 -61,-24zm193 -66l75 0 63 177 67 -177 47 0 66 175 62 -175 76 0 -112 310 -49 0 -67 -176 -68 176 -49 0 -111 -310zm811 177l-250 0c4,22 13,40 29,53 15,13 35,19 60,19 29,0 53,-10 74,-30l65 31c-16,23 -36,40 -58,51 -23,11 -50,17 -81,17 -49,0 -88,-16 -118,-46 -31,-31 -46,-69 -46,-115 0,-47 15,-86 46,-117 30,-32 68,-47 114,-47 49,0 89,15 119,46 31,31 46,72 46,123l0 15zm-78 -61c-5,-17 -15,-30 -30,-41 -15,-11 -33,-16 -53,-16 -21,0 -40,6 -57,18 -10,8 -20,21 -28,39l168 0zm123 -116l67 0 0 40c7,-16 17,-27 29,-35 11,-8 24,-12 39,-12 10,0 20,2 31,8l-24 67c-9,-5 -17,-7 -22,-7 -12,0 -22,7 -31,22 -8,15 -12,44 -12,87l0 15 0 125 -77 0 0 -310zm515 177l-250 0c4,22 13,40 29,53 15,13 35,19 60,19 28,0 53,-10 74,-30l65 31c-16,23 -36,40 -58,51 -23,11 -50,17 -81,17 -49,0 -88,-16 -118,-46 -31,-31 -46,-69 -46,-115 0,-47 15,-86 46,-117 30,-32 68,-47 114,-47 49,0 88,15 119,46 31,31 46,72 46,123l0 15zm-78 -61c-5,-17 -15,-30 -30,-41 -15,-11 -33,-16 -53,-16 -21,0 -40,6 -57,18 -10,8 -20,21 -28,39l168 0zm370 -235l78 0 0 429 -78 0 0 -33c-15,15 -30,25 -46,31 -15,6 -31,10 -49,10 -40,0 -75,-16 -104,-47 -30,-31 -44,-69 -44,-115 0,-48 14,-87 42,-118 29,-30 63,-45 103,-45 19,0 37,3 53,10 16,7 31,18 45,32l0 -154zm-82 183c-24,0 -44,8 -60,25 -16,17 -24,39 -24,66 0,26 9,48 25,66 16,17 36,25 60,25 24,0 44,-8 60,-25 17,-17 25,-39 25,-67 0,-27 -8,-48 -25,-65 -16,-17 -36,-25 -61,-25zm479 -183l0 154c14,-14 29,-25 45,-32 17,-7 34,-10 53,-10 40,0 74,15 103,45 28,31 42,70 42,118 0,46 -15,84 -44,115 -29,31 -64,47 -104,47 -17,0 -34,-4 -49,-10 -16,-6 -31,-16 -46,-31l0 33 -78 0 0 -429 78 0zm81 183c-24,0 -44,8 -60,25 -17,17 -25,38 -25,65 0,28 8,50 25,67 16,17 36,25 60,25 24,0 44,-8 60,-25 16,-18 24,-40 24,-66 0,-27 -7,-49 -23,-66 -16,-17 -36,-25 -61,-25zm192 -64l79 0 81 194 89 -194 79 0 -194 423 -79 0 63 -136 -118 -287z"/>
	<path id="prw_txt1" class="fil4" d="M659 1248l0 35c14,-14 29,-25 45,-32 17,-7 34,-10 53,-10 40,0 75,15 103,46 28,30 42,69 42,117 0,46 -14,84 -44,115 -29,31 -63,47 -103,47 -18,0 -35,-3 -50,-10 -16,-6 -31,-16 -46,-31l0 146 -78 0 0 -423 78 0zm81 64c-24,0 -44,8 -60,25 -16,17 -25,39 -25,65 0,28 9,50 25,67 16,17 36,26 60,26 24,0 44,-9 60,-26 17,-18 25,-39 25,-66 0,-27 -8,-49 -24,-65 -16,-17 -36,-26 -61,-26zm372 -71c29,0 57,7 83,22 26,14 46,34 60,59 15,25 22,52 22,81 0,29 -7,56 -22,82 -15,25 -34,45 -59,59 -26,15 -53,22 -83,22 -45,0 -83,-16 -114,-47 -32,-32 -48,-70 -48,-115 0,-49 18,-89 54,-121 31,-28 67,-42 107,-42zm1 73c-24,0 -44,8 -60,25 -16,17 -24,38 -24,64 0,27 8,49 24,65 16,17 36,25 60,25 24,0 45,-8 61,-25 16,-17 24,-38 24,-65 0,-26 -8,-48 -24,-64 -16,-17 -36,-25 -61,-25zm193 -66l75 0 63 177 67 -177 47 0 66 175 62 -175 76 0 -112 310 -49 0 -67 -176 -68 176 -49 0 -111 -310zm811 177l-250 0c4,22 13,40 29,53 15,13 35,20 60,20 29,0 53,-11 74,-31l65 31c-16,23 -36,40 -58,51 -23,11 -50,17 -81,17 -48,0 -88,-15 -118,-46 -31,-31 -46,-69 -46,-115 0,-47 15,-86 46,-117 30,-32 68,-47 114,-47 49,0 89,15 119,46 31,32 46,73 46,124l0 14zm-78 -60c-5,-17 -15,-31 -30,-42 -15,-10 -33,-16 -53,-16 -21,0 -40,6 -57,18 -10,8 -20,21 -28,40l168 0zm123 -117l67 0 0 40c7,-16 17,-27 29,-35 11,-8 24,-12 39,-12 10,0 20,3 31,8l-24 67c-9,-5 -17,-7 -22,-7 -12,0 -22,8 -31,22 -8,15 -12,44 -12,87l0 15 0 125 -77 0 0 -310zm515 177l-250 0c4,22 13,40 29,53 15,13 35,20 60,20 29,0 53,-11 74,-31l65 31c-16,23 -36,40 -58,51 -23,11 -50,17 -81,17 -48,0 -88,-15 -118,-46 -31,-31 -46,-69 -46,-115 0,-47 15,-86 46,-117 30,-32 68,-47 114,-47 49,0 89,15 119,46 31,32 46,73 46,124l0 14zm-78 -60c-5,-17 -15,-31 -30,-42 -15,-10 -33,-16 -53,-16 -21,0 -40,6 -57,18 -10,8 -20,21 -28,40l168 0zm370 -236l78 0 0 429 -78 0 0 -33c-15,15 -30,25 -46,31 -15,7 -31,10 -49,10 -40,0 -75,-16 -104,-47 -29,-31 -44,-69 -44,-115 0,-48 14,-87 42,-117 29,-31 63,-46 103,-46 19,0 37,3 53,10 16,7 31,18 45,32l0 -154zm-82 183c-24,0 -44,9 -60,26 -16,16 -23,38 -23,65 0,27 8,48 24,66 16,17 36,26 60,26 24,0 44,-9 60,-26 17,-17 25,-39 25,-67 0,-26 -8,-48 -25,-65 -16,-17 -36,-25 -61,-25zm479 -183l0 154c14,-14 29,-25 45,-32 17,-7 34,-10 53,-10 40,0 74,15 103,46 28,30 42,69 42,117 0,46 -14,84 -44,115 -29,31 -64,47 -104,47 -17,0 -34,-3 -49,-10 -16,-6 -31,-16 -46,-31l0 33 -78 0 0 -429 78 0zm81 183c-24,0 -44,8 -60,25 -17,17 -25,39 -25,65 0,28 8,50 25,67 16,17 36,26 60,26 24,0 44,-9 60,-26 16,-18 25,-39 25,-66 0,-27 -8,-49 -24,-65 -16,-17 -36,-26 -61,-26zm192 -64l79 0 81 194 89 -194 79 0 -194 423 -79 0 63 -136 -118 -287z"/>
	 
		<animate attributeType="CSS" attributeName="opacity" values="0;1" dur="0.5s" begin="draw_line.end"/>
		<set attributeName="visibility" attributeType="XML" begin="draw_line.end" from="hidden" to="visible"/>
		<animateTransform attributeName="transform" attributeType="XML"  fill="freeze" type="translate" dur="0.5s" begin="draw_line.end" values="0 -400;0 0" />

</g>
 
 <g id="spwr_txts" visibility='hidden'>
  <path id="prw_txt4_shd" class="fil3" d="M13277 2100l90 0 0 359 -90 0 0 -38c-18,17 -36,29 -54,36 -17,7 -37,11 -57,11 -47,0 -87,-18 -121,-54 -34,-36 -51,-81 -51,-134 0,-55 17,-101 49,-136 33,-35 73,-53 120,-53 22,0 42,4 61,12 19,8 36,20 53,36l0 -39zm-95 73c-28,0 -52,10 -70,30 -19,20 -28,45 -28,76 0,31 10,56 28,76 19,20 42,30 70,30 28,0 52,-9 71,-29 18,-20 28,-46 28,-78 0,-31 -10,-56 -28,-76 -19,-19 -43,-29 -71,-29zm276 -73l91 0 0 173c0,33 2,57 7,70 5,13 12,23 22,30 11,7 23,11 38,11 15,0 28,-4 39,-11 10,-7 18,-17 23,-31 4,-11 6,-33 6,-67l0 -175 90 0 0 152c0,63 -5,105 -15,129 -12,28 -30,49 -54,64 -23,15 -53,23 -90,23 -39,0 -71,-9 -95,-26 -25,-18 -42,-42 -52,-74 -7,-22 -10,-61 -10,-119l0 -149zm672 -139l90 0 0 498 -90 0 0 -38c-17,17 -35,29 -53,36 -18,7 -37,11 -58,11 -46,0 -86,-18 -120,-54 -34,-36 -51,-81 -51,-134 0,-55 16,-101 49,-136 33,-35 73,-53 120,-53 21,0 42,4 61,12 19,8 36,20 52,36l0 -178zm-95 212c-28,0 -51,10 -69,30 -19,20 -28,45 -28,76 0,31 9,56 28,76 19,20 42,30 70,30 28,0 52,-9 70,-29 19,-20 28,-46 28,-78 0,-31 -9,-56 -28,-76 -18,-19 -42,-29 -71,-29zm312 -221c16,0 29,6 41,17 11,11 17,25 17,42 0,16 -6,29 -17,40 -11,12 -25,17 -40,17 -16,0 -30,-5 -41,-17 -12,-11 -17,-25 -17,-42 0,-16 5,-29 16,-40 12,-11 25,-17 41,-17zm-45 148l90 0 0 359 -90 0 0 -359zm341 -9c34,0 66,8 96,25 30,17 53,40 70,69 17,29 25,60 25,94 0,34 -9,66 -25,95 -17,29 -40,53 -70,69 -29,17 -61,25 -96,25 -52,0 -96,-18 -132,-55 -37,-36 -55,-81 -55,-133 0,-56 21,-103 62,-140 36,-33 78,-49 125,-49zm1 84c-28,0 -51,10 -70,30 -19,19 -28,44 -28,74 0,31 9,57 28,76 18,19 41,29 70,29 28,0 51,-10 70,-29 19,-20 28,-45 28,-76 0,-31 -9,-55 -27,-75 -19,-19 -42,-29 -71,-29z"/>
  <path id="prw_txt4" class="fil4" d="M13277 2057l90 0 0 360 -90 0 0 -38c-18,16 -36,28 -54,36 -17,7 -37,11 -57,11 -47,0 -87,-18 -121,-54 -34,-36 -51,-81 -51,-134 0,-56 17,-101 49,-137 33,-35 73,-53 120,-53 22,0 42,4 61,12 19,8 36,21 53,37l0 -40zm-95 74c-28,0 -52,10 -70,30 -19,19 -28,45 -28,75 0,31 10,57 28,77 19,20 42,30 70,30 28,0 52,-10 71,-30 18,-19 28,-45 28,-77 0,-31 -10,-57 -28,-76 -19,-19 -43,-29 -71,-29zm276 -74l91 0 0 173c0,34 2,57 7,70 5,13 12,24 22,31 11,7 23,11 38,11 15,0 28,-4 39,-11 10,-7 18,-18 23,-32 4,-10 6,-32 6,-66l0 -176 90 0 0 152c0,63 -5,106 -15,129 -12,28 -30,50 -54,65 -23,15 -53,23 -90,23 -39,0 -71,-9 -95,-27 -25,-17 -42,-42 -52,-73 -7,-22 -10,-62 -10,-119l0 -150zm672 -139l90 0 0 499 -90 0 0 -38c-17,16 -35,28 -53,36 -18,7 -37,11 -58,11 -46,0 -86,-18 -120,-54 -34,-36 -51,-81 -51,-134 0,-56 16,-101 49,-137 33,-35 73,-53 120,-53 21,0 42,4 61,12 19,9 36,21 52,37l0 -179zm-95 213c-28,0 -51,10 -69,30 -19,19 -28,45 -28,75 0,31 9,57 28,77 19,20 42,30 70,30 28,0 52,-10 70,-30 19,-19 28,-45 28,-77 0,-31 -9,-57 -28,-76 -18,-19 -42,-29 -71,-29zm312 -221c16,0 29,5 41,17 11,11 17,25 17,41 0,16 -6,30 -17,41 -11,11 -25,17 -40,17 -16,0 -30,-6 -41,-17 -12,-12 -17,-26 -17,-42 0,-16 5,-29 16,-41 12,-11 25,-16 41,-16zm-45 147l90 0 0 360 -90 0 0 -360zm341 -9c34,0 66,9 96,26 30,17 53,40 70,69 17,29 25,60 25,94 0,34 -9,65 -25,95 -17,29 -40,52 -70,69 -29,16 -61,25 -96,25 -52,0 -96,-19 -132,-55 -37,-37 -55,-81 -55,-134 0,-56 21,-102 62,-140 36,-32 78,-49 125,-49zm1 85c-28,0 -51,10 -70,29 -19,20 -28,45 -28,75 0,31 9,56 28,76 18,19 41,29 70,29 28,0 51,-10 70,-30 19,-19 28,-44 28,-75 0,-31 -9,-56 -27,-75 -19,-19 -42,-29 -71,-29z"/>

		<animate attributeType="CSS" attributeName="opacity" values="0;1" dur="0.5s" begin="draw_line.end"/>
		<set attributeName="visibility" attributeType="XML" begin="draw_line.end" from="hidden" to="visible"/>
		<animateTransform attributeName="transform" attributeType="XML"  fill="freeze" type="translate" dur="0.5s" begin="draw_line.end" values="0 400;0 0" />
 
 
 </g>
</svg>
