<?xml version="1.0" encoding="UTF-8"?>
<!DOCTYPE svg PUBLIC "-//W3C//DTD SVG 1.1//EN" "http://www.w3.org/Graphics/SVG/1.1/DTD/svg11.dtd">

<svg xmlns="http://www.w3.org/2000/svg" xml:space="preserve" width="600px" height="382px" version="1.1" style="shape-rendering:geometricPrecision; text-rendering:geometricPrecision; image-rendering:optimizeQuality; fill-rule:evenodd; clip-rule:evenodd"
viewBox="0 0 6000 3820"
 xmlns:xlink="http://www.w3.org/1999/xlink">
 <defs>
  <style type="text/css">
   <![CDATA[
    .str0 {stroke:white;stroke-width:120;stroke-linejoin:round;stroke-dasharray:12470}
	.str1 {stroke:black;stroke-width:0;stroke-linejoin:round;stroke-dasharray:12470}
	.str3 {stroke:#85C2DC;stroke-width:120;stroke-linejoin:round;stroke-dasharray:12470}
    .fil2 {fill:none}
    .fil0 {fill:#95D5F3}
    .fil1 {fill:white}
	.fil3 {fill:#85C2DC;fill-rule:nonzero}
   ]]>
  </style>

	<clipPath id="clp_pwr">
	   <path d="M3000 404c-638,0 -1156,519 -1156,1156 0,638 518,1156 1156,1156 638,0 1156,-518 1156,-1156 0,-638 -518,-1156 -1156,-1156l0 0zm0 112c575,0 1044,469 1044,1044 0,86 -11,169 -31,248 -2,0 -4,0 -5,0 -67,19 -139,29 -216,30 -15,-25 -34,-105 -45,-153 -30,-130 -55,-242 -145,-242 -85,0 -118,90 -144,162 -6,18 -16,43 -24,61 -18,-68 -34,-204 -45,-301 -36,-305 -55,-428 -147,-428 -92,0 -109,126 -147,528 -9,98 -22,229 -36,323 -11,-65 -22,-148 -29,-212 -36,-286 -55,-414 -147,-414 -94,0 -114,132 -146,354 -9,67 -23,160 -37,216 -11,-34 -22,-81 -28,-114 -30,-131 -55,-244 -145,-244 -93,0 -116,124 -146,278 -11,60 -29,155 -47,186 -87,-3 -270,-26 -357,-95 -2,-2 -4,-2 -5,-2 -11,-59 -17,-118 -17,-181 1,-575 470,-1044 1045,-1044l0 0zm0 2088c-459,0 -850,-300 -989,-713 125,50 276,63 337,63 93,0 116,-124 146,-278 9,-46 22,-113 34,-155 13,36 24,87 31,123 30,132 55,244 146,244 93,0 114,-133 145,-355 8,-56 19,-129 31,-186 14,71 25,168 35,243 36,287 54,414 147,414 92,0 109,-127 146,-528 10,-99 22,-227 36,-321 11,69 22,157 30,224 36,304 55,428 147,428 84,0 117,-91 144,-163 7,-23 20,-59 29,-76 14,33 30,100 39,142 30,130 55,242 146,242 65,0 131,-6 192,-19 -150,391 -528,671 -972,671z"/>
	</clipPath>
	  
	  
 </defs>

<rect id="pwr_back" class="fil0" width="6000" height="3820"/>

<g transform='translate(0,40)'>
<defs>
<clipPath id="clp_pwr2">
	   <path d="M3000 404c-638,0 -1156,519 -1156,1156 0,638 518,1156 1156,1156 638,0 1156,-518 1156,-1156 0,-638 -518,-1156 -1156,-1156l0 0zm0 112c575,0 1044,469 1044,1044 0,86 -11,169 -31,248 -2,0 -4,0 -5,0 -67,19 -139,29 -216,30 -15,-25 -34,-105 -45,-153 -30,-130 -55,-242 -145,-242 -85,0 -118,90 -144,162 -6,18 -16,43 -24,61 -18,-68 -34,-204 -45,-301 -36,-305 -55,-428 -147,-428 -92,0 -109,126 -147,528 -9,98 -22,229 -36,323 -11,-65 -22,-148 -29,-212 -36,-286 -55,-414 -147,-414 -94,0 -114,132 -146,354 -9,67 -23,160 -37,216 -11,-34 -22,-81 -28,-114 -30,-131 -55,-244 -145,-244 -93,0 -116,124 -146,278 -11,60 -29,155 -47,186 -87,-3 -270,-26 -357,-95 -2,-2 -4,-2 -5,-2 -11,-59 -17,-118 -17,-181 1,-575 470,-1044 1045,-1044l0 0zm0 2088c-459,0 -850,-300 -989,-713 125,50 276,63 337,63 93,0 116,-124 146,-278 9,-46 22,-113 34,-155 13,36 24,87 31,123 30,132 55,244 146,244 93,0 114,-133 145,-355 8,-56 19,-129 31,-186 14,71 25,168 35,243 36,287 54,414 147,414 92,0 109,-127 146,-528 10,-99 22,-227 36,-321 11,69 22,157 30,224 36,304 55,428 147,428 84,0 117,-91 144,-163 7,-23 20,-59 29,-76 14,33 30,100 39,142 30,130 55,242 146,242 65,0 131,-6 192,-19 -150,391 -528,671 -972,671z"/>
	</clipPath>
</defs>
<path style='clip-path: url(#clp_pwr2);' class="fil2 str3" d="M1924 1795c-130,-594 247,-1179 840,-1309 594,-131 1182,252 1313,846 130,593 -248,1172 -841,1302 -594,131 -1180,-241 -1310,-834 103,56 390,124 438,94 65,-42 70,-447 166,-451 96,-4 75,392 175,376 100,-16 78,-595 183,-589 104,7 97,703 177,701 80,-2 77,-926 178,-929 100,-3 106,723 179,742 73,20 109,-237 180,-240 70,-3 88,350 171,382 50,19 248,-31 290,-42">
		<animate attributeType="CSS" attributeName="stroke-dashoffset" from="12470" to="0" dur="1.5s" begin="0s" />
</path>

</g>

<g visibility='hidden'>
<path transform='translate(0,40)' class="fil3" d="M2356 3326l2 67c0,0 -72,17 -132,17 -96,0 -137,-47 -137,-161 0,-113 47,-170 140,-170 94,0 139,47 139,142l-6 61 -187 0c0,37 17,50 64,50 51,0 117,-6 117,-6l0 0zm2207 0l2 67c0,0 -72,17 -133,17 -95,0 -136,-47 -136,-161 0,-113 47,-170 140,-170 94,0 138,47 138,142l-6 61 -186 0c0,37 17,50 64,50 52,0 117,-6 117,-6l0 0zm-539 0l2 67c0,0 -72,17 -133,17 -95,0 -136,-47 -136,-161 0,-113 47,-170 140,-170 93,0 138,47 138,142l-6 61 -186 0c0,37 17,50 64,50 50,0 117,-6 117,-6l0 0zm-759 -81c0,97 -35,165 -146,165 -111,0 -146,-68 -146,-165 0,-98 35,-166 146,-166 111,0 146,68 146,166l0 0zm-1697 89c43,0 45,-25 45,-81l0 -166 85 0 0 166c0,109 -19,157 -111,157l-52 0c-94,0 -111,-50 -111,-157l0 -166 85 0 0 166c0,56 2,81 45,81l14 0zm1035 -163c-37,0 -88,11 -88,11l0 220 -85 0 0 -315 85 0c0,0 57,-8 88,-8l0 92zm1668 0c-37,0 -88,11 -88,11l0 220 -85 0 0 -315 85 0c0,0 57,-8 88,-8l0 92zm630 231l-85 0c0,0 -43,8 -76,8 -96,0 -123,-58 -123,-169 0,-115 45,-162 130,-162 24,0 69,8 69,8l0 -109 85 10 0 414zm-83 -79l0 -162c0,0 -36,-6 -63,-6 -31,0 -50,24 -50,86 0,64 11,89 52,89 24,0 61,-7 61,-7zm-327 -107c0,-45 -14,-63 -55,-63 -41,0 -54,20 -54,63l109 0zm-539 0c0,-45 -14,-63 -55,-63 -41,0 -54,20 -54,63l109 0zm-580 -129l39 239 3 0 49 -233 90 0 46 233 6 0 37 -239 84 0 -59 315 -124 0 -37 -192 -35 192 -125 0 -58 -315 84 0zm-193 158c0,-59 -14,-90 -60,-90 -47,0 -61,31 -61,90 0,58 14,89 61,89 46,0 60,-31 60,-89zm-531 -158l85 0c0,0 41,-8 72,-8 84,0 125,41 125,164 0,134 -47,169 -144,169 -23,0 -53,-6 -53,-6l0 111 -85 -10 0 -420zm85 82l0 161c0,0 30,4 47,4 51,0 64,-25 64,-91 0,-64 -21,-86 -54,-86 -24,0 -57,12 -57,12zm-451 47c0,-45 -14,-63 -55,-63 -40,0 -54,20 -54,63l109 0zm-520 -129l86 0c0,0 41,-8 72,-8 84,0 125,41 125,164 0,134 -47,169 -144,169 -24,0 -53,-6 -53,-6l0 111 -86 -10 0 -420zm86 82l0 161c0,0 29,4 47,4 50,0 64,-25 64,-91 0,-64 -21,-86 -55,-86 -23,0 -56,12 -56,12zm-504 -4c0,0 -78,-10 -115,-10 -37,0 -45,8 -45,26 0,13 12,17 61,25 83,13 111,37 111,101 0,74 -49,103 -129,103 -46,0 -124,-15 -124,-15l2 -72c0,0 81,11 113,11 40,0 50,-8 50,-23 0,-14 -8,-20 -50,-27 -82,-14 -119,-33 -119,-102 0,-73 56,-103 122,-103 45,0 123,16 123,16l0 70z">
</path>

<path id="pwr_txt" class="fil1" d="M2356 3326l2 67c0,0 -72,17 -132,17 -96,0 -137,-47 -137,-161 0,-113 47,-170 140,-170 94,0 139,47 139,142l-6 61 -187 0c0,37 17,50 64,50 51,0 117,-6 117,-6l0 0zm2207 0l2 67c0,0 -72,17 -133,17 -95,0 -136,-47 -136,-161 0,-113 47,-170 140,-170 94,0 138,47 138,142l-6 61 -186 0c0,37 17,50 64,50 52,0 117,-6 117,-6l0 0zm-539 0l2 67c0,0 -72,17 -133,17 -95,0 -136,-47 -136,-161 0,-113 47,-170 140,-170 93,0 138,47 138,142l-6 61 -186 0c0,37 17,50 64,50 50,0 117,-6 117,-6l0 0zm-759 -81c0,97 -35,165 -146,165 -111,0 -146,-68 -146,-165 0,-98 35,-166 146,-166 111,0 146,68 146,166l0 0zm-1697 89c43,0 45,-25 45,-81l0 -166 85 0 0 166c0,109 -19,157 -111,157l-52 0c-94,0 -111,-50 -111,-157l0 -166 85 0 0 166c0,56 2,81 45,81l14 0zm1035 -163c-37,0 -88,11 -88,11l0 220 -85 0 0 -315 85 0c0,0 57,-8 88,-8l0 92zm1668 0c-37,0 -88,11 -88,11l0 220 -85 0 0 -315 85 0c0,0 57,-8 88,-8l0 92zm630 231l-85 0c0,0 -43,8 -76,8 -96,0 -123,-58 -123,-169 0,-115 45,-162 130,-162 24,0 69,8 69,8l0 -109 85 10 0 414zm-83 -79l0 -162c0,0 -36,-6 -63,-6 -31,0 -50,24 -50,86 0,64 11,89 52,89 24,0 61,-7 61,-7zm-327 -107c0,-45 -14,-63 -55,-63 -41,0 -54,20 -54,63l109 0zm-539 0c0,-45 -14,-63 -55,-63 -41,0 -54,20 -54,63l109 0zm-580 -129l39 239 3 0 49 -233 90 0 46 233 6 0 37 -239 84 0 -59 315 -124 0 -37 -192 -35 192 -125 0 -58 -315 84 0zm-193 158c0,-59 -14,-90 -60,-90 -47,0 -61,31 -61,90 0,58 14,89 61,89 46,0 60,-31 60,-89zm-531 -158l85 0c0,0 41,-8 72,-8 84,0 125,41 125,164 0,134 -47,169 -144,169 -23,0 -53,-6 -53,-6l0 111 -85 -10 0 -420zm85 82l0 161c0,0 30,4 47,4 51,0 64,-25 64,-91 0,-64 -21,-86 -54,-86 -24,0 -57,12 -57,12zm-451 47c0,-45 -14,-63 -55,-63 -40,0 -54,20 -54,63l109 0zm-520 -129l86 0c0,0 41,-8 72,-8 84,0 125,41 125,164 0,134 -47,169 -144,169 -24,0 -53,-6 -53,-6l0 111 -86 -10 0 -420zm86 82l0 161c0,0 29,4 47,4 50,0 64,-25 64,-91 0,-64 -21,-86 -55,-86 -23,0 -56,12 -56,12zm-504 -4c0,0 -78,-10 -115,-10 -37,0 -45,8 -45,26 0,13 12,17 61,25 83,13 111,37 111,101 0,74 -49,103 -129,103 -46,0 -124,-15 -124,-15l2 -72c0,0 81,11 113,11 40,0 50,-8 50,-23 0,-14 -8,-20 -50,-27 -82,-14 -119,-33 -119,-102 0,-73 56,-103 122,-103 45,0 123,16 123,16l0 70z">
		  
</path>
 <animate attributeType="CSS" attributeName="opacity" values="0;1" dur="0.5s" begin="draw_line.end"/>
		   <set attributeName="visibility" attributeType="XML" begin="draw_line.end" from="hidden" to="visible"/>
</g>

<path id="pwr_draw_line" style='clip-path: url(#clp_pwr);' class="fil2 str0" d="M1924 1795c-130,-594 247,-1179 840,-1309 594,-131 1182,252 1313,846 130,593 -248,1172 -841,1302 -594,131 -1180,-241 -1310,-834 103,56 390,124 438,94 65,-42 70,-447 166,-451 96,-4 75,392 175,376 100,-16 78,-595 183,-589 104,7 97,703 177,701 80,-2 77,-926 178,-929 100,-3 106,723 179,742 73,20 109,-237 180,-240 70,-3 88,350 171,382 50,19 248,-31 290,-42">
		<animate id='draw_line' attributeType="CSS" attributeName="stroke-dashoffset" from="12470" to="0" dur="1.5s" begin="0s" />
</path>
		
<path id="pwr_mpth" class="fil2 str1" d="M1924 1795c-130,-594 247,-1179 840,-1309 594,-131 1182,252 1313,846 130,593 -248,1172 -841,1302 -594,131 -1180,-241 -1310,-834 103,56 390,124 438,94 65,-42 70,-447 166,-451 96,-4 75,392 175,376 100,-16 78,-595 183,-589 104,7 97,703 177,701 80,-2 77,-926 178,-929 100,-3 106,723 179,742 73,20 109,-237 180,-240 70,-3 88,350 171,382 50,19 248,-31 290,-42"/>

<circle id="pwr_rnd" class="fil1" cx="-0" cy="-0" r="145">
		<animateMotion begin="draw_line.begin" dur="1.5s" repeatCount="1" fill="freeze" >
			 <mpath xlink:href="#pwr_mpth" />
		</animateMotion>
		<animateTransform id='pwr_rnd_hide' attributeName="transform" attributeType="XML"  fill="freeze" type="translate" dur="0.5s" begin="draw_line.end" values="0 0;10 10" />
		<animateTransform attributeName="transform" attributeType="XML"  type="scale" dur="0.5s" fill="freeze"  additive='sum' values="1 1; 0 0" begin="pwr_rnd_hide.begin" />
</circle>

</svg>
