<?xml version="1.0" encoding="UTF-8"?>
<!DOCTYPE svg PUBLIC "-//W3C//DTD SVG 1.1//EN" "http://www.w3.org/Graphics/SVG/1.1/DTD/svg11.dtd">
<svg xmlns="http://www.w3.org/2000/svg" xml:space="preserve" width="250px" height="250px" version="1.1" style="shape-rendering:geometricPrecision; text-rendering:geometricPrecision; image-rendering:optimizeQuality; fill-rule:evenodd; clip-rule:evenodd"
viewBox="0 0 2500 2500"
 xmlns:xlink="http://www.w3.org/1999/xlink">
 <defs>
  <style type="text/css">
   <![CDATA[
    .fil0 {fill:#95D5F3}
    .fil1 {fill:white}
	.fil3 {fill:#85C2DC;fill-rule:nonzero}
   ]]>
  </style>
 </defs>
 <g id="lpwr_back">
  <rect id="bck_rct" class="fil0" width="2500" height="2500"/>
 </g>
 <g id="lpwr_logo">
	<path transform='translate(0,40)' class="fil3" d="M1250 94c-638,0 -1156,518 -1156,1156 0,638 518,1156 1156,1156 638,0 1156,-518 1156,-1156 0,-638 -518,-1156 -1156,-1156l0 0zm0 112c575,0 1044,469 1044,1044 0,86 -11,169 -31,248 -2,0 -4,0 -5,0 -67,19 -139,29 -216,30 -15,-25 -34,-105 -45,-153 -30,-130 -55,-242 -145,-242 -85,0 -118,90 -144,162 -6,18 -16,43 -24,61 -18,-68 -34,-204 -45,-301 -36,-305 -55,-428 -147,-428 -92,0 -109,126 -147,528 -9,98 -22,229 -36,323 -11,-65 -22,-148 -29,-212 -36,-286 -55,-414 -147,-414 -94,0 -114,132 -146,354 -9,67 -23,160 -37,216 -11,-34 -22,-81 -28,-114 -30,-131 -55,-244 -145,-244 -93,0 -116,124 -146,278 -11,60 -29,155 -47,186 -87,-3 -270,-26 -357,-95 -2,-2 -4,-2 -5,-2 -11,-59 -17,-119 -17,-181 1,-575 470,-1044 1045,-1044l0 0zm0 2088c-459,0 -850,-300 -989,-713 125,50 276,63 337,63 93,0 116,-124 146,-278 9,-46 22,-113 34,-155 13,36 24,87 31,123 30,132 55,244 146,244 93,0 114,-133 145,-355 8,-56 19,-129 31,-186 14,71 25,168 35,243 36,287 54,414 147,414 92,0 109,-127 146,-528 10,-99 22,-227 36,-321 11,69 22,157 30,224 36,304 55,428 147,428 84,0 117,-91 144,-163 7,-23 20,-59 29,-76 14,33 30,100 39,142 30,130 55,242 146,242 65,0 131,-6 192,-19 -150,391 -528,671 -972,671z"/>
    <path class="fil1" d="M1250 94c-638,0 -1156,518 -1156,1156 0,638 518,1156 1156,1156 638,0 1156,-518 1156,-1156 0,-638 -518,-1156 -1156,-1156l0 0zm0 112c575,0 1044,469 1044,1044 0,86 -11,169 -31,248 -2,0 -4,0 -5,0 -67,19 -139,29 -216,30 -15,-25 -34,-105 -45,-153 -30,-130 -55,-242 -145,-242 -85,0 -118,90 -144,162 -6,18 -16,43 -24,61 -18,-68 -34,-204 -45,-301 -36,-305 -55,-428 -147,-428 -92,0 -109,126 -147,528 -9,98 -22,229 -36,323 -11,-65 -22,-148 -29,-212 -36,-286 -55,-414 -147,-414 -94,0 -114,132 -146,354 -9,67 -23,160 -37,216 -11,-34 -22,-81 -28,-114 -30,-131 -55,-244 -145,-244 -93,0 -116,124 -146,278 -11,60 -29,155 -47,186 -87,-3 -270,-26 -357,-95 -2,-2 -4,-2 -5,-2 -11,-59 -17,-119 -17,-181 1,-575 470,-1044 1045,-1044l0 0zm0 2088c-459,0 -850,-300 -989,-713 125,50 276,63 337,63 93,0 116,-124 146,-278 9,-46 22,-113 34,-155 13,36 24,87 31,123 30,132 55,244 146,244 93,0 114,-133 145,-355 8,-56 19,-129 31,-186 14,71 25,168 35,243 36,287 54,414 147,414 92,0 109,-127 146,-528 10,-99 22,-227 36,-321 11,69 22,157 30,224 36,304 55,428 147,428 84,0 117,-91 144,-163 7,-23 20,-59 29,-76 14,33 30,100 39,142 30,130 55,242 146,242 65,0 131,-6 192,-19 -150,391 -528,671 -972,671z"/>
 </g>
</svg>
