<?xml version="1.0" encoding="UTF-8"?>
<!DOCTYPE svg PUBLIC "-//W3C//DTD SVG 1.1//EN" "http://www.w3.org/Graphics/SVG/1.1/DTD/svg11.dtd">
<svg xmlns="http://www.w3.org/2000/svg" xml:space="preserve" width="400px" height="80px" version="1.1" style="shape-rendering:geometricPrecision; text-rendering:geometricPrecision; image-rendering:optimizeQuality; fill-rule:evenodd; clip-rule:evenodd"
viewBox="0 0 4000 800"
 xmlns:xlink="http://www.w3.org/1999/xlink">
 <defs>
  <style type="text/css">
   <![CDATA[
    .fil0 {fill:#95D5F3}
    .fil1 {fill:white}
	.fil3 {fill:#85C2DC;fill-rule:nonzero}
   ]]>
  </style>
 </defs>

 
<rect id="spwr_back" class="fil0" width="4000" height="800"/>
   <path transform='translate(0,40)' class="fil3" d="M1356 479l2 66c0,0 -72,17 -132,17 -96,0 -137,-46 -137,-161 0,-113 47,-169 140,-169 94,0 139,46 139,142l-6 60 -187 0c0,37 17,51 64,51 51,0 117,-6 117,-6l0 0zm2207 0l2 66c0,0 -72,17 -133,17 -95,0 -136,-46 -136,-161 0,-113 47,-169 140,-169 94,0 138,46 138,142l-6 60 -186 0c0,37 17,51 64,51 52,0 117,-6 117,-6l0 0zm-539 0l2 66c0,0 -72,17 -133,17 -95,0 -136,-46 -136,-161 0,-113 47,-169 140,-169 93,0 138,46 138,142l-6 60 -186 0c0,37 17,51 64,51 50,0 117,-6 117,-6l0 0zm-759 -82c0,97 -35,165 -146,165 -111,0 -146,-68 -146,-165 0,-97 35,-165 146,-165 111,0 146,68 146,165l0 0zm-1697 90c43,0 45,-26 45,-82l0 -166 85 0 0 166c0,109 -19,157 -111,157l-52 0c-94,0 -111,-50 -111,-157l0 -166 85 0 0 166c0,56 2,82 45,82l14 0zm1035 -164c-37,0 -88,12 -88,12l0 220 -85 0 0 -316 85 0c0,0 57,-7 88,-7l0 91zm1668 0c-37,0 -88,12 -88,12l0 220 -85 0 0 -316 85 0c0,0 57,-7 88,-7l0 91zm630 232l-85 0c0,0 -43,7 -76,7 -96,0 -123,-58 -123,-169 0,-115 45,-161 130,-161 24,0 69,7 69,7l0 -109 85 10 0 415zm-83 -80l0 -162c0,0 -36,-5 -63,-5 -31,0 -50,23 -50,85 0,64 11,90 52,90 24,0 61,-8 61,-8zm-327 -107c0,-45 -14,-62 -55,-62 -41,0 -54,19 -54,62l109 0zm-539 0c0,-45 -14,-62 -55,-62 -41,0 -54,19 -54,62l109 0zm-580 -129l39 240 3 0 49 -234 90 0 46 234 6 0 37 -240 84 0 -59 316 -124 0 -37 -193 -35 193 -125 0 -58 -316 84 0zm-193 158c0,-58 -14,-89 -60,-89 -47,0 -61,31 -61,89 0,58 14,90 61,90 46,0 60,-32 60,-90zm-531 -158l85 0c0,0 41,-7 72,-7 84,0 125,41 125,163 0,134 -47,169 -144,169 -23,0 -53,-5 -53,-5l0 111 -85 -10 0 -421zm85 82l0 162c0,0 30,4 47,4 51,0 64,-26 64,-92 0,-64 -21,-85 -54,-85 -24,0 -57,11 -57,11zm-451 47c0,-45 -14,-62 -55,-62 -40,0 -54,19 -54,62l109 0zm-520 -129l86 0c0,0 41,-7 72,-7 84,0 125,41 125,163 0,134 -47,169 -144,169 -24,0 -53,-5 -53,-5l0 111 -86 -10 0 -421zm86 82l0 162c0,0 29,4 47,4 50,0 64,-26 64,-92 0,-64 -21,-85 -55,-85 -23,0 -56,11 -56,11zm-504 -4c0,0 -78,-9 -115,-9 -37,0 -45,7 -45,25 0,13 12,17 61,25 83,14 111,37 111,101 0,74 -49,103 -129,103 -46,0 -124,-15 -124,-15l2 -72c0,0 81,12 113,12 40,0 50,-8 50,-24 0,-13 -8,-19 -50,-27 -82,-14 -119,-33 -119,-101 0,-74 56,-103 122,-103 45,0 123,15 123,15l0 70z"/>
   <path id="spwr_txt" class="fil1" d="M1356 479l2 66c0,0 -72,17 -132,17 -96,0 -137,-46 -137,-161 0,-113 47,-169 140,-169 94,0 139,46 139,142l-6 60 -187 0c0,37 17,51 64,51 51,0 117,-6 117,-6l0 0zm2207 0l2 66c0,0 -72,17 -133,17 -95,0 -136,-46 -136,-161 0,-113 47,-169 140,-169 94,0 138,46 138,142l-6 60 -186 0c0,37 17,51 64,51 52,0 117,-6 117,-6l0 0zm-539 0l2 66c0,0 -72,17 -133,17 -95,0 -136,-46 -136,-161 0,-113 47,-169 140,-169 93,0 138,46 138,142l-6 60 -186 0c0,37 17,51 64,51 50,0 117,-6 117,-6l0 0zm-759 -82c0,97 -35,165 -146,165 -111,0 -146,-68 -146,-165 0,-97 35,-165 146,-165 111,0 146,68 146,165l0 0zm-1697 90c43,0 45,-26 45,-82l0 -166 85 0 0 166c0,109 -19,157 -111,157l-52 0c-94,0 -111,-50 -111,-157l0 -166 85 0 0 166c0,56 2,82 45,82l14 0zm1035 -164c-37,0 -88,12 -88,12l0 220 -85 0 0 -316 85 0c0,0 57,-7 88,-7l0 91zm1668 0c-37,0 -88,12 -88,12l0 220 -85 0 0 -316 85 0c0,0 57,-7 88,-7l0 91zm630 232l-85 0c0,0 -43,7 -76,7 -96,0 -123,-58 -123,-169 0,-115 45,-161 130,-161 24,0 69,7 69,7l0 -109 85 10 0 415zm-83 -80l0 -162c0,0 -36,-5 -63,-5 -31,0 -50,23 -50,85 0,64 11,90 52,90 24,0 61,-8 61,-8zm-327 -107c0,-45 -14,-62 -55,-62 -41,0 -54,19 -54,62l109 0zm-539 0c0,-45 -14,-62 -55,-62 -41,0 -54,19 -54,62l109 0zm-580 -129l39 240 3 0 49 -234 90 0 46 234 6 0 37 -240 84 0 -59 316 -124 0 -37 -193 -35 193 -125 0 -58 -316 84 0zm-193 158c0,-58 -14,-89 -60,-89 -47,0 -61,31 -61,89 0,58 14,90 61,90 46,0 60,-32 60,-90zm-531 -158l85 0c0,0 41,-7 72,-7 84,0 125,41 125,163 0,134 -47,169 -144,169 -23,0 -53,-5 -53,-5l0 111 -85 -10 0 -421zm85 82l0 162c0,0 30,4 47,4 51,0 64,-26 64,-92 0,-64 -21,-85 -54,-85 -24,0 -57,11 -57,11zm-451 47c0,-45 -14,-62 -55,-62 -40,0 -54,19 -54,62l109 0zm-520 -129l86 0c0,0 41,-7 72,-7 84,0 125,41 125,163 0,134 -47,169 -144,169 -24,0 -53,-5 -53,-5l0 111 -86 -10 0 -421zm86 82l0 162c0,0 29,4 47,4 50,0 64,-26 64,-92 0,-64 -21,-85 -55,-85 -23,0 -56,11 -56,11zm-504 -4c0,0 -78,-9 -115,-9 -37,0 -45,7 -45,25 0,13 12,17 61,25 83,14 111,37 111,101 0,74 -49,103 -129,103 -46,0 -124,-15 -124,-15l2 -72c0,0 81,12 113,12 40,0 50,-8 50,-24 0,-13 -8,-19 -50,-27 -82,-14 -119,-33 -119,-101 0,-74 56,-103 122,-103 45,0 123,15 123,15l0 70z"/>
</svg>
